<?xml version="1.0" encoding="UTF-8" standalone="no"?>
<!-- Created with Inkscape (http://www.inkscape.org/) -->

<svg
   width="512"
   height="512"
   viewBox="0 0 512 512"
   version="1.1"
   id="svg5"
   inkscape:export-filename="/home/anas/foreground.png"
   inkscape:export-xdpi="96"
   inkscape:export-ydpi="96"
   inkscape:version="1.2 (dc2aedaf03, 2022-05-15)"
   sodipodi:docname="instagram-plus.svg"
   xmlns:inkscape="http://www.inkscape.org/namespaces/inkscape"
   xmlns:sodipodi="http://sodipodi.sourceforge.net/DTD/sodipodi-0.dtd"
   xmlns="http://www.w3.org/2000/svg"
   xmlns:svg="http://www.w3.org/2000/svg">
  <sodipodi:namedview
     id="namedview7"
     pagecolor="#505050"
     bordercolor="#ffffff"
     borderopacity="1"
     inkscape:pageshadow="0"
     inkscape:pageopacity="0"
     inkscape:pagecheckerboard="1"
     inkscape:document-units="px"
     showgrid="false"
     inkscape:zoom="0.92531992"
     inkscape:cx="357.71412"
     inkscape:cy="274.49966"
     inkscape:window-width="1366"
     inkscape:window-height="707"
     inkscape:window-x="0"
     inkscape:window-y="0"
     inkscape:window-maximized="1"
     inkscape:current-layer="layer1"
     inkscape:showpageshadow="2"
     inkscape:deskcolor="#505050" />
  <defs
     id="defs2" />
  <g
     inkscape:label="Layer 1"
     inkscape:groupmode="layer"
     id="layer1">
    <rect
       style="opacity:1;fill:#e66e48;fill-opacity:1;paint-order:stroke fill markers"
       id="rect286"
       width="479.04633"
       height="479.04633"
       x="19.530632"
       y="19.366455"
       ry="108.49974" />
    <path
       style="fill:#fdfbfb;stroke-width:0.745511"
       d="M 179.05993,452.22789 C 148.02734,449.63084 122.46734,438.05651 101.2549,416.99546 81.186626,397.07041 69.284482,372.20713 66.162011,343.68732 c -1.082438,-9.88673 -1.082438,-159.77592 0,-169.66265 C 71.699,123.45132 106.93802,82.210525 155.67698,69.263864 c 14.73025,-3.912836 13.52899,-3.868113 103.8982,-3.868113 88.92967,0 86.9822,-0.0663 101.38957,3.451837 30.22799,7.381373 56.86976,26.959132 73.92687,54.325302 8.2643,13.25914 14.08294,29.538 16.78768,46.96723 1.45291,9.36249 1.43025,168.2875 -0.0252,177.43175 -5.63112,35.37647 -24.03248,64.88867 -52.2883,83.8603 -14.75623,9.90768 -29.24778,15.77824 -48.0926,19.48243 -6.14263,1.20741 -13.57637,1.32917 -87.97037,1.44085 -44.69341,0.0671 -82.60268,0.01 -84.24281,-0.12756 z m 165.63151,-37.18392 c 18.56413,-3.01087 34.36987,-11.15759 47.38528,-24.4237 9.20995,-9.38734 15.83096,-20.18125 19.98525,-32.58098 4.40449,-13.14654 4.43438,-13.8096 4.4369,-98.43778 0.002,-51.70169 -0.269,-79.37426 -0.81995,-83.87005 -4.53868,-37.03634 -32.97332,-66.51787 -70.46098,-73.05517 -9.68266,-1.68851 -162.0057,-1.66973 -172.43259,0.0213 -18.10958,2.93694 -32.64454,10.45794 -45.95609,23.77959 -13.33571,13.34583 -20.59988,27.22945 -23.77576,45.4413 -1.71717,9.84697 -1.72557,162.77327 -0.01,173.35464 5.56457,34.31188 32.58516,62.38689 66.35965,68.94916 3.26081,0.63356 6.9352,1.27824 8.16528,1.43261 1.2301,0.15438 37.79744,0.3296 81.26077,0.38939 66.76393,0.0918 80.08504,-0.0634 85.86177,-1.00027 z m -95.72855,-59.99182 c -11.56868,-1.32121 -22.64888,-4.55373 -32.62738,-9.51865 -20.16423,-10.03294 -37.34182,-27.92043 -45.65151,-47.53815 -4.9131,-11.59894 -6.60909,-18.12086 -7.77889,-29.91368 -4.07654,-41.09587 18.9562,-80.8386 56.41244,-97.33904 11.74908,-5.17576 18.99272,-7.04985 31.78823,-8.22432 27.33959,-2.50942 55.64921,7.63436 75.16511,26.93284 7.72966,7.64354 11.93188,13.06456 17.05542,22.00206 17.09753,29.82506 16.54347,67.68659 -1.42045,97.063 -17.31344,28.31269 -46.23152,45.44857 -78.97588,46.79849 -4.71536,0.19439 -11.00055,0.0762 -13.96709,-0.26255 z m 22.01277,-36.9907 c 19.03071,-3.91119 34.88057,-16.44309 42.97298,-33.97713 4.20776,-9.11706 5.19707,-13.91947 5.19707,-25.22832 0,-11.27307 -0.99157,-16.11609 -5.14,-25.10484 -7.52747,-16.31037 -20.91263,-27.83101 -38.40203,-33.05273 -6.94811,-2.07446 -19.28246,-2.78896 -26.48701,-1.53435 -43.35669,7.55024 -64.44839,56.6111 -40.13772,93.36334 8.78451,13.2802 24.76491,23.42293 41.27733,26.19867 4.55592,0.76583 15.46121,0.41602 20.71938,-0.66464 z M 356.9757,165.89334 c -3.23792,-1.59534 -5.94841,-5.74899 -6.48817,-9.94269 -0.53865,-4.18509 1.85794,-9.25409 5.52833,-11.69289 11.48015,-7.628 25.11007,5.53546 17.95176,17.33737 -3.02832,4.99278 -11.32344,7.09108 -16.99192,4.29821 z"
       id="path315"
       sodipodi:nodetypes="ssssssssscsssssssssssssssssssssssssssssssssssssssssssss" />
  </g>
</svg>
