<?xml version="1.0" encoding="UTF-8" standalone="no"?>
<svg
   width="20"
   height="17"
   viewBox="0 0 20 17"
   version="1.1"
   id="svg6"
   sodipodi:docname="libya.svg"
   xml:space="preserve"
   inkscape:version="1.2 (dc2aedaf03, 2022-05-15)"
   xmlns:inkscape="http://www.inkscape.org/namespaces/inkscape"
   xmlns:sodipodi="http://sodipodi.sourceforge.net/DTD/sodipodi-0.dtd"
   xmlns="http://www.w3.org/2000/svg"
   xmlns:svg="http://www.w3.org/2000/svg"
   xmlns:rdf="http://www.w3.org/1999/02/22-rdf-syntax-ns#"
   xmlns:cc="http://creativecommons.org/ns#"
   xmlns:dc="http://purl.org/dc/elements/1.1/"><defs
     id="defs10" /><sodipodi:namedview
     id="namedview8"
     pagecolor="#ffffff"
     bordercolor="#000000"
     borderopacity="0.25"
     inkscape:showpageshadow="2"
     inkscape:pageopacity="0.0"
     inkscape:pagecheckerboard="0"
     inkscape:deskcolor="#d1d1d1"
     showgrid="false"
     inkscape:zoom="10.216667"
     inkscape:cx="2.2512234"
     inkscape:cy="4.4045676"
     inkscape:window-width="1366"
     inkscape:window-height="707"
     inkscape:window-x="0"
     inkscape:window-y="0"
     inkscape:window-maximized="1"
     inkscape:current-layer="svg6" /><title
     id="title2">Page 1</title><metadata
     id="metadata305"><rdf:RDF><cc:Work
         rdf:about=""><dc:title>Page 1</dc:title></cc:Work></rdf:RDF></metadata><path
     style="fill:#ffffff;stroke-width:0;stroke:none;stroke-dasharray:none"
     d="m 16.696169,16.655989 c -0.37329,-0.04176 -0.433511,-0.06967 -2.343103,-1.085893 -2.029215,-1.079879 -2.99313,-1.600414 -4.207583,-2.272183 C 9.522168,12.95313 8.916451,12.635202 8.799445,12.591408 8.275106,12.395152 7.931392,12.451814 7.344254,12.831299 6.950547,13.085765 6.675986,13.092742 5.938646,12.867017 5.350413,12.686938 4.993734,12.494504 4.216236,11.937747 3.514324,11.435117 3.045646,11.177586 2.670784,11.088545 2.542828,11.058152 2.405047,11.012766 2.364604,10.987689 2.172544,10.868595 1.286118,9.2888474 1.236931,8.9780003 1.224511,8.8995173 1.264641,8.648873 1.354009,8.2468191 1.571715,7.2673351 1.602743,7.0356829 1.605112,6.372107 1.607912,5.593637 1.542372,5.2986685 1.190276,4.5045346 L 1.113766,4.3319728 1.31404,4.138944 C 1.568832,3.8933688 1.729557,3.5663749 1.939837,2.8657607 2.219233,1.9348674 2.406878,1.6570541 2.921478,1.4124191 3.229696,1.2658956 3.304355,1.1774515 3.404506,0.84020357 c 0.02726,-0.091794 0.08271,-0.2051451 0.123218,-0.251892 l 0.07365,-0.084994 1.068965,0.034308 c 1.286483,0.04129 1.600965,0.078261 1.928765,0.2267514 0.264895,0.1199947 0.381986,0.221695 0.639886,0.55577423 0.530065,0.686639 0.803636,0.8381201 2.31154,1.279941 0.603999,0.1769739 0.854077,0.2944742 1.261375,0.5926631 0.398405,0.2916786 0.448047,0.3186133 0.676229,0.3669095 0.496645,0.1051179 0.874135,-0.010965 1.006149,-0.3094033 0.04636,-0.1048089 0.06471,-0.2553864 0.07851,-0.6442863 0.02929,-0.8256119 0.14303,-1.1653918 0.514798,-1.537879 0.405691,-0.40647703 0.819431,-0.54022253 1.680917,-0.54337273 0.535848,-0.00196 0.573533,0.00216 0.730302,0.079866 0.09091,0.045063 0.270385,0.1806222 0.398826,0.3012434 0.433011,0.40664983 0.549588,0.45684793 1.157745,0.49852493 0.515208,0.035307 0.725744,0.1138996 0.881645,0.3291154 0.206437,0.2849774 0.216969,0.5156544 0.141984,3.1098003 -0.02061,0.7129017 -0.04561,3.375066 -0.05556,5.9159205 -0.0109,2.782037 -0.03116,4.703373 -0.05093,4.82999 -0.05099,0.326403 -0.150544,0.551842 -0.330813,0.749084 -0.250001,0.273542 -0.522373,0.365065 -0.945534,0.317721 z"
     id="path301" /></svg>
